PathFileType	4	(X/Y/Z)	Patient4_TMGait_0pt3_02_left_01.trc.trc
DataRate	CameraRate	NumFrames	NumMarkers	Units	OrigDataRate	OrigDataStartFrame	OrigNumFrames
51.282051282051	51.282051282051	4	33	mm	51.282051282051	36	       141
Frame#	Time	Sacral			L.Shoulder			Chest			R.Shoulder			Neck			R.ASIS			L.ASIS			R.Thigh.Superior			R.Thigh.Lateral			R.Thigh.Inferior			R.Patella			L.Thigh.Superior			L.Thigh.Lateral			L.Thigh.Inferior			L.Patella			L.Shank.Superior			L.Shank.Lateral			L.Shank.Inferior			R.Shank.Superior			R.Shank.Lateral			R.Shank.Inferior			R.Heel			R.Midfoot.Superior			R.Midfoot.Lateral			R.Toe			L.Heel			L.Midfoot.Lateral			L.Midfoot.Superior			L.Toe			L.Elbow			L.Wrist			R.Elbow			R.Wrist			
		X1	Y1	Z1	X2	Y2	Z2	X3	Y3	Z3	X4	Y4	Z4	X5	Y5	Z5	X6	Y6	Z6	X7	Y7	Z7	X8	Y8	Z8	X9	Y9	Z9	X10	Y10	Z10	X11	Y11	Z11	X12	Y12	Z12	X13	Y13	Z13	X14	Y14	Z14	X15	Y15	Z15	X16	Y16	Z16	X17	Y17	Z17	X18	Y18	Z18	X19	Y19	Z19	X20	Y20	Z20	X21	Y21	Z21	X22	Y22	Z22	X23	Y23	Z23	X24	Y24	Z24	X25	Y25	Z25	X26	Y26	Z26	X27	Y27	Z27	X28	Y28	Z28	X29	Y29	Z29	X30	Y30	Z30	X31	Y31	Z31	X32	Y32	Z32	X33	Y33	Z33	

36	1.872500000000	692.870415837842	1004.400949381996	542.514388718348	826.079705611848	1418.471135814442	313.928731997304	967.122232659272	1351.924638553037	444.946276674818	933.108212586309	1436.935108061580	629.454891791891	851.752398113443	1485.841866176927	465.778205238486	935.294061897036	926.934682180810	613.596310279009	873.197506527739	955.360627733078	346.482063202637	924.903429047920	713.356856969195	585.533489291732	826.883162141890	617.816069377241	655.400364510567	880.412121929849	552.510652552238	569.776627798813	857.775964888037	459.737361643009	579.398148264013	949.988830338525	762.755560434886	374.699728204792	877.928863003744	635.618757415041	314.439930660817	979.221607849484	572.090182167887	369.893893530244	990.140194879932	502.690708479410	374.010603532473	972.215357833086	428.936500475971	364.944398455541	894.551077150217	305.621291460888	314.534233122705	966.025102916931	199.386178100038	377.191986269827	799.039068469946	384.526115799206	589.520521176018	699.923533069198	309.558806297073	655.573474354248	706.832295913840	206.094774673216	594.476411942070	529.891035669843	73.303142692396	566.900516770021	705.497450628716	101.674505021308	607.549348786935	608.843735817980	53.552372094711	642.993051770840	814.482562441874	36.901443632249	640.772806556470	854.514481250975	37.751083396434	416.417911802544	929.629208687840	35.409848676672	336.364191750270	1011.729729233913	98.103894896915	363.194405107451	1140.300343303465	49.296800787828	337.281840866577	687.054806511777	1088.953715197302	242.933469306914	686.821158946975	828.071849622252	270.582792086543	1126.603021145545	1169.040285516029	746.114986402608	1365.249596456747	1230.731074453188	674.160947840218	
37	1.892000000000	694.339661517398	1005.596106023407	537.534371541122	828.046187129821	1419.475521176624	309.311333438570	968.543697333655	1353.212423207468	441.070224310481	933.506610285530	1438.429551513823	625.286309276384	852.752721331689	1487.020090917035	461.345372405631	936.326549943901	928.129225993704	610.122119961208	875.735047714011	956.321476703488	342.734000048717	925.715883015167	714.376924990183	583.069501369396	827.373007822661	619.267673018175	653.065922146056	881.369671010306	553.336404316532	568.122983979962	858.406443347691	460.193528714383	578.472146903660	951.499510410974	762.784365626498	371.757759684140	878.891505553776	635.869446981366	311.801799622218	979.387296973213	571.740902104667	368.017124510296	989.841415205268	502.144951239834	372.640634617030	971.112425601075	428.384902890735	363.856759037466	892.409666566504	305.778943923962	313.494157652002	961.884920423299	198.959822398698	377.112940146203	798.503864347083	385.702759690691	588.640369849556	698.119911934581	312.431609271791	654.531025232078	704.276954412926	208.327611738227	594.302368138347	525.643078070909	78.242577713795	566.953317368311	701.752607265048	102.600125464112	607.874458931060	604.079755292010	56.468210421922	642.986788538326	808.921253206667	36.698739410400	640.755838791469	848.778028294796	37.696969168714	416.377099512356	923.864724771001	35.532837406977	336.319321043628	1005.959886751553	98.055559819742	363.363663564501	1134.555347525285	49.335001716416	337.248986184105	690.759075347496	1089.682094834994	235.827477349292	695.467832522101	828.683303083645	262.200309270500	1126.550630370940	1169.720618390830	741.532091806841	1367.517032067395	1226.533442584220	671.850707195222	
38	1.911500000000	695.676392829534	1006.719437697640	532.445148650407	830.196294533151	1420.489456869035	304.752508452599	969.956620104495	1354.493242894690	437.444375084193	933.657249111198	1439.906169545596	621.311642187197	853.771583852849	1488.199061587283	457.016704104471	937.243285374411	929.344115325674	606.723435486609	878.285517411023	957.271699729882	339.015053162149	926.667256138949	715.505295511813	580.627371246196	828.100211883645	620.724406169650	650.715156029545	882.671397092461	554.211599057420	566.512764777929	859.405106654014	460.659649177839	577.639887662071	952.846137435471	762.589789313388	368.799550939339	879.568427372680	635.969423018517	309.221609381140	979.169471019804	571.204975205297	366.297425083903	989.173084325736	501.481710510045	371.428313087142	969.668697799802	427.766494305399	362.893739460013	890.046084946435	305.824897505077	312.592614292901	957.586125244681	198.506175204795	377.096725802657	798.307695289155	386.910230057500	587.839456412367	696.593413744874	315.387690770091	653.490138949716	701.999537301156	210.619279663637	594.176251010470	521.594835236529	83.382267352481	567.008676608795	698.180547386234	103.467063578352	608.217651590996	599.436227668327	59.471602714488	642.988316564780	803.356172832159	36.545511831715	640.720687782968	843.013015778102	37.650839738432	416.379507064413	918.073308360005	35.637620988312	336.328999835325	1000.195015648232	97.962602522851	363.580330275314	1128.811289818947	49.207482058378	337.249268815200	694.894258909668	1090.391629358923	228.530713421604	704.522603790084	829.383952514328	253.799673071845	1125.827610221802	1169.980339113051	737.229023400650	1369.299736999591	1221.307807325326	670.453121542620	
39	1.931000000000	696.900618165737	1007.746866272315	527.255843409365	832.464317762689	1421.511877026410	300.284972794358	971.328552030640	1355.762725005269	434.056127111037	933.574350812523	1441.331846346205	617.536723133427	854.790284250996	1489.362094761377	452.816898096843	938.072163140822	930.562430933893	603.354877536580	880.840238029096	958.197558103605	335.284860919102	927.730213262312	716.711704874525	578.192146551886	829.015681046424	622.173957121963	648.343797773113	884.256752277134	555.114762347185	564.944385620779	860.708629242300	461.114756467057	576.902523870891	954.103680246974	762.242454227182	365.835930702576	880.075756133598	635.948059282539	306.700191191068	978.709790399520	570.536973708027	364.697046633704	988.258844021754	500.725349051918	370.341384483987	968.005261434898	427.090345434825	362.027688774542	887.549978125766	305.781252559279	311.788539189274	953.197180450707	198.023451980695	377.119557879080	798.406978496101	388.130766458500	587.129172420094	695.312899910358	318.404360607477	652.479117784378	699.975528144493	212.945749326734	594.124087420716	517.735824908916	88.672857205958	567.100733070666	694.763329099926	104.256897025483	608.599029749314	594.906831901209	62.522494748235	643.022618836020	797.786832961325	36.433838691246	640.670512544948	837.222710944086	37.626668229346	416.414860676177	912.261689541479	35.726304473881	336.383852182536	994.454260402569	97.820286678669	363.831505504665	1123.080347833351	48.883556184859	337.280584396088	699.516676632812	1091.011600641578	221.120588120835	714.000273995682	830.107744864991	245.424739226128	1124.397855520289	1169.758939643451	733.248629559763	1370.493207115276	1214.864604839826	670.029370881062	
